<svg width="57" height="57" viewBox="0 0 57 57" fill="none" xmlns="http://www.w3.org/2000/svg">
<rect x="0.341431" y="0.341553" width="56" height="56" rx="28" fill="#EBFBFE"/>
<path fill-rule="evenodd" clip-rule="evenodd" d="M19.3415 20.3416C19.3415 15.371 23.3709 11.3416 28.3415 11.3416C33.312 11.3416 37.3415 15.371 37.3415 20.3416C37.3415 25.3121 33.312 29.3416 28.3415 29.3416C23.3709 29.3416 19.3415 25.3121 19.3415 20.3416Z" fill="#0B87AC"/>
<path fill-rule="evenodd" clip-rule="evenodd" d="M11.844 48.5522C11.9987 39.5727 19.3255 32.3416 28.3415 32.3416C37.3577 32.3416 44.6847 39.573 44.839 48.5529C44.8492 49.1484 44.5061 49.6936 43.9648 49.942C39.2069 52.1251 33.9145 53.3416 28.3421 53.3416C22.7692 53.3416 17.4763 52.1249 12.7181 49.9413C12.1768 49.6929 11.8337 49.1477 11.844 48.5522Z" fill="#0B87AC"/>
</svg>
